<svg width="126" height="110" viewBox="0 0 126 110" fill="none" xmlns="http://www.w3.org/2000/svg">
<g clip-path="url(#clip0_902_12798)">
<path d="M20.3735 65.042L35.311 66.0426V44.0284L43.2765 43.0288V66.0426L57.2016 67.0443V0L43.2765 3.00194V25.9958L35.311 27.0174V6.01088L20.3735 10.0105V65.042Z" fill="#996935"/>
<path d="M61.1883 34.024L81.098 37.0249V68.0439L94.0376 67.0383V40.0258L108.971 42.0271V29.0187L61.1883 19.0073V34.024Z" fill="#996935"/>
<path d="M61.1883 35.0226L79.1131 45.0321V78.0394L61.1883 70.0522V35.0226Z" fill="#C25406"/>
<path d="M74.6565 62.9877C75.4751 62.9877 76.1387 62.0917 76.1387 60.9864C76.1387 59.8811 75.4751 58.9851 74.6565 58.9851C73.8379 58.9851 73.1743 59.8811 73.1743 60.9864C73.1743 62.0917 73.8379 62.9877 74.6565 62.9877Z" fill="white"/>
<path d="M17.9795 109.687H14.0605V99.5873H3.93495V109.687H0V86.9221H3.93495V96.3972H14.0605V86.9221H17.9795V109.687Z" fill="#996935"/>
<path d="M38.5422 90.1122H31.4806V109.687H27.5735V90.1122H20.5776V86.9221H38.5422V90.1122Z" fill="#996935"/>
<path d="M66.274 104.058L69.758 86.9221H73.6621L68.4361 109.687H64.6723L60.3641 93.0671L55.9623 109.687H52.1796L46.9536 86.9221H50.8577L54.3726 104.027L58.6967 86.9221H61.9936L66.274 104.058Z" fill="#996935"/>
<path d="M74.9841 101.072C74.9601 99.5227 75.2955 97.9889 75.9636 96.5923C76.5643 95.3229 77.5214 94.2578 78.7169 93.5284C79.9513 92.8008 81.3616 92.4303 82.7922 92.4577C83.8156 92.4172 84.8362 92.592 85.7884 92.9711C86.7407 93.3502 87.6036 93.9252 88.3219 94.6591C89.785 96.252 90.6018 98.3378 90.6114 100.506L90.6273 101.397C90.6542 102.942 90.3269 104.472 89.6707 105.869C89.076 107.134 88.1239 108.194 86.9332 108.918C85.6873 109.653 84.2633 110.026 82.8191 109.997C81.7534 110.043 80.6907 109.853 79.7059 109.441C78.721 109.029 77.8381 108.405 77.1193 107.612C75.6292 105.844 74.8644 103.571 74.9801 101.256L74.9841 101.072ZM78.7667 101.4C78.684 102.843 79.0598 104.275 79.8398 105.489C80.1758 105.966 80.6249 106.351 81.1464 106.609C81.6679 106.867 82.2453 106.99 82.8261 106.967C83.4082 106.99 83.9866 106.864 84.5074 106.602C85.0281 106.339 85.4743 105.949 85.8044 105.466C86.5992 104.146 86.9713 102.612 86.8705 101.072C86.9474 99.6342 86.5637 98.2092 85.7755 97.0066C85.4333 96.5428 84.9881 96.1657 84.4755 95.9051C83.9628 95.6445 83.3968 95.5077 82.8224 95.5055C82.2479 95.5032 81.6808 95.6357 81.1662 95.8922C80.6516 96.1488 80.2035 96.5225 79.8577 96.9836C79.0393 98.3033 78.6564 99.8491 78.7637 101.4H78.7667Z" fill="#996935"/>
<path d="M93.1198 101.072C93.0959 99.5228 93.4313 97.989 94.0993 96.5924C94.7003 95.322 95.6586 94.2568 96.8557 93.5284C98.09 92.8008 99.5004 92.4303 100.931 92.4577C101.954 92.4172 102.975 92.5921 103.927 92.9712C104.879 93.3503 105.742 93.9252 106.46 94.6591C107.925 96.251 108.744 98.3371 108.754 100.506L108.77 101.397C108.796 102.942 108.469 104.472 107.813 105.869C107.219 107.134 106.267 108.194 105.076 108.918C103.83 109.653 102.406 110.026 100.962 109.997C99.896 110.043 98.8332 109.853 97.8482 109.441C96.8633 109.029 95.9801 108.405 95.261 107.612C93.7716 105.843 93.0073 103.571 93.1228 101.256L93.1198 101.072ZM96.9025 101.4C96.8198 102.843 97.1956 104.275 97.9756 105.489C98.3116 105.966 98.7607 106.351 99.2822 106.609C99.8037 106.867 100.381 106.99 100.962 106.967C101.544 106.99 102.122 106.864 102.643 106.602C103.164 106.339 103.61 105.949 103.94 105.466C104.735 104.146 105.106 102.612 105.005 101.072C105.082 99.6342 104.698 98.2092 103.91 97.0066C103.568 96.5428 103.123 96.1657 102.61 95.9051C102.097 95.6445 101.531 95.5077 100.957 95.5055C100.382 95.5032 99.815 95.6357 99.3003 95.8922C98.7856 96.1488 98.3374 96.5225 97.9915 96.9836C97.1742 98.3037 96.792 99.8493 96.8995 101.4H96.9025Z" fill="#996935"/>
<path d="M111.256 101.103C111.145 98.8674 111.78 96.6584 113.059 94.8262C113.614 94.0668 114.344 93.4544 115.187 93.0418C116.03 92.6292 116.959 92.4287 117.896 92.4577C118.71 92.4285 119.521 92.5818 120.268 92.9063C121.016 93.2308 121.683 93.7184 122.22 94.3339V85.6713H126.003V109.687H122.582L122.395 107.936C121.85 108.608 121.158 109.145 120.373 109.503C119.588 109.861 118.73 110.031 117.868 110C116.939 110.02 116.018 109.812 115.186 109.395C114.354 108.979 113.635 108.365 113.09 107.607C111.776 105.705 111.131 103.416 111.256 101.103ZM115.038 101.431C114.958 102.843 115.302 104.246 116.027 105.458C116.331 105.922 116.749 106.299 117.241 106.553C117.733 106.806 118.282 106.927 118.834 106.904C119.54 106.934 120.24 106.752 120.843 106.382C121.447 106.012 121.928 105.47 122.224 104.825V97.601C121.928 96.9652 121.451 96.4325 120.852 96.0705C120.254 95.7086 119.562 95.5339 118.865 95.5687C118.307 95.5458 117.754 95.6685 117.258 95.9247C116.761 96.1809 116.34 96.5619 116.034 97.0306C115.279 98.3675 114.931 99.8978 115.034 101.431H115.038Z" fill="#996935"/>
</g>
<defs>
<clipPath id="clip0_902_12798">
<rect width="126" height="110" fill="white"/>
</clipPath>
</defs>
</svg>
