<svg width="21" height="20" viewBox="0 0 21 20" fill="none" xmlns="http://www.w3.org/2000/svg">
<g id="Group">
<g id="Group_2">
<g id="Group_3">
<path id="Vector" d="M10.38 7.14C11.66 7.2 11.99 8.29 12.01 8.8H13.8C13.72 6.82 12.31 5.61 10.35 5.61C8.14 5.61 6.5 7 6.5 10.14C6.5 12.08 7.43 14.38 10.34 14.38C12.56 14.38 13.75 12.73 13.78 11.43H11.99C11.96 12.02 11.54 12.81 10.36 12.87C9.05 12.83 8.5 11.81 8.5 10.14C8.5 7.25 9.78 7.16 10.38 7.14ZM10.5 0C4.98 0 0.5 4.48 0.5 10C0.5 15.52 4.98 20 10.5 20C16.02 20 20.5 15.52 20.5 10C20.5 4.48 16.02 0 10.5 0ZM10.5 18C6.09 18 2.5 14.41 2.5 10C2.5 5.59 6.09 2 10.5 2C14.91 2 18.5 5.59 18.5 10C18.5 14.41 14.91 18 10.5 18Z" fill="#FEFEFE"/>
</g>
</g>
</g>
</svg>
