<svg width="20" height="14" viewBox="0 0 20 14" fill="none" xmlns="http://www.w3.org/2000/svg">
<path id="Vector" d="M10 10.5028C9.35426 10.5028 8.70852 10.3029 8.15797 9.90241L0 3.97943V12.25C0 13.2165 0.839453 14 1.875 14H18.125C19.1605 14 20 13.2165 20 12.25V3.97943L11.842 9.90241C11.2915 10.3029 10.6457 10.5028 10 10.5028ZM0.636211 2.96424L8.92457 8.98184C9.55711 9.44107 10.4429 9.44107 11.0754 8.98184L19.3638 2.96424C19.7652 2.6728 20 2.22469 20 1.75C20 0.78349 19.1605 0 18.125 0H1.875C0.839453 0 0 0.78349 0 1.75C0 2.22469 0.234766 2.6728 0.636211 2.96424Z" fill="#FEFEFE"/>
</svg>
