<svg width="16" height="20" viewBox="0 0 16 20" fill="none" xmlns="http://www.w3.org/2000/svg">
<path id="Vector" d="M8 0C3.58204 0 0 3.35817 0 7.50004C0 10.5238 1.12371 11.3685 7.17838 19.5967C7.57554 20.1344 8.4245 20.1344 8.82162 19.5967C14.8763 11.3685 16 10.5238 16 7.50004C16 3.35817 12.418 0 8 0ZM8 10.6249C6.16146 10.6249 4.66667 9.22356 4.66667 7.49993C4.66667 5.77629 6.16146 4.37489 8 4.37489C9.83854 4.37489 11.3333 5.77625 11.3333 7.49993C11.3333 9.2236 9.83854 10.6249 8 10.6249Z" fill="#FEFEFE"/>
</svg>
