<svg width="20" height="20" viewBox="0 0 20 20" fill="none" xmlns="http://www.w3.org/2000/svg">
<path id="Vector" d="M19.9689 15.1171L19.0607 19.0539C18.9331 19.6106 18.4436 20 17.8705 20C8.01695 20 0 11.9835 0 2.12873C0 1.55619 0.389414 1.0667 0.946055 0.939748L4.8816 0.0315453C5.45531 -0.101541 6.0443 0.196311 6.28234 0.739553L8.09996 4.9803C8.31238 5.47959 8.16895 6.06065 7.74902 6.40366L5.64637 8.12608C6.97387 10.83 9.17297 13.0285 11.878 14.3566L13.5986 12.2546C13.938 11.8334 14.5245 11.6881 15.0238 11.9042L19.2615 13.7206C19.8047 13.955 20.1007 14.5471 19.9689 15.1171Z" fill="#FEFEFE"/>
</svg>
