<svg width="25" height="24" viewBox="0 0 25 24" fill="none" xmlns="http://www.w3.org/2000/svg">
<g id="location-fill">
<path id="Icon" fill-rule="evenodd" clip-rule="evenodd" d="M12.5 2C16.9183 2 20.5 5.58172 20.5 10C20.5 12.9238 18.0541 16.7674 13.2138 21.7004C12.8218 22.0999 12.1782 22.0999 11.7862 21.7004L11.3325 21.2339C6.79307 16.5243 4.5 12.831 4.5 10C4.5 5.58172 8.08172 2 12.5 2ZM15 9C15 7.61929 13.8807 6.5 12.5 6.5C11.1193 6.5 10 7.61929 10 9C10 10.3807 11.1193 11.5 12.5 11.5C13.8807 11.5 15 10.3807 15 9Z" fill="#FEFEFE"/>
</g>
</svg>
