<svg width="192" height="48" viewBox="0 0 192 48" fill="none" xmlns="http://www.w3.org/2000/svg">
<g id="Asset 6 1" clip-path="url(#clip0_730_1935)">
<g id="Layer 2">
<g id="Layer 1">
<path id="Vector" d="M0 40.0051L9.2176 40.6207V27.0805L14.1328 26.4665V40.6207L22.7264 41.2363V0L14.1328 1.84683V15.9898L9.2176 16.6183V3.69687L0 6.15611V40.0051Z" fill="white"/>
<path id="Vector_2" d="M25.1855 20.9276L37.4719 22.7728V41.8519L45.4575 41.2331V24.618L54.6719 25.8492V17.8479L25.1855 11.6902V20.9276Z" fill="white"/>
<path id="Vector_3" d="M25.1855 21.5415L36.2463 27.6976V47.9999L25.1855 43.0863V21.5415Z" fill="#858585"/>
<path id="Vector_4" d="M33.4977 38.7417C34.0032 38.7417 34.4129 38.1905 34.4129 37.5105C34.4129 36.8305 34.0032 36.2793 33.4977 36.2793C32.9923 36.2793 32.5825 36.8305 32.5825 37.5105C32.5825 38.1905 32.9923 38.7417 33.4977 38.7417Z" fill="white"/>
<path id="Vector_5" d="M80.7999 35.6509H76.7711V25.3121H66.3711V35.6509H62.3311V12.3442H66.3727V22.0433H76.7727V12.3442H80.7999V35.6509Z" fill="white"/>
<path id="Vector_6" d="M101.92 15.6147H94.6591V35.6541H90.6511V15.6147H83.4639V12.3442H101.92V15.6147Z" fill="white"/>
<path id="Vector_7" d="M117.171 29.9164L117.899 33.5812L118.789 30.08L123.909 12.6841H125.704L130.752 30.08L131.625 33.6069L132.401 29.91L136.657 12.6777H138.696L132.654 36.2874H130.745L125.406 17.8239L124.808 15.4897L124.225 17.8239L118.757 36.2874H116.848L110.829 12.6841H112.867L117.171 29.9164Z" fill="white"/>
<path id="Vector_8" d="M140.502 27.2535C140.477 25.6805 140.812 24.1226 141.48 22.699C142.079 21.399 143.044 20.302 144.255 19.5419C145.466 18.7818 146.872 18.3914 148.301 18.4185C149.367 18.3819 150.429 18.5832 151.408 19.008C152.387 19.4328 153.26 20.0703 153.963 20.8746C155.474 22.6958 156.247 25.0184 156.131 27.3834V27.789C156.156 29.3699 155.821 30.9358 155.152 32.3676C154.557 33.6599 153.598 34.7502 152.394 35.5049C151.171 36.2502 149.763 36.6327 148.333 36.6079C147.268 36.6434 146.208 36.4414 145.23 36.0167C144.252 35.592 143.381 34.9551 142.678 34.1519C141.164 32.3326 140.387 30.0094 140.502 27.6431V27.2535ZM142.443 27.789C142.367 29.6471 142.942 31.4735 144.069 32.9511C144.585 33.5822 145.234 34.0906 145.97 34.4397C146.706 34.7888 147.51 34.9699 148.324 34.9699C149.138 34.9699 149.942 34.7888 150.678 34.4397C151.414 34.0906 152.063 33.5822 152.579 32.9511C153.724 31.4204 154.299 29.5375 154.206 27.6271V27.2535C154.221 25.988 153.967 24.7339 153.461 23.5743C153.024 22.5334 152.303 21.6371 151.381 20.9884C150.474 20.3741 149.401 20.054 148.307 20.0714C147.493 20.0539 146.686 20.229 145.952 20.5825C145.219 20.936 144.578 21.4579 144.083 22.1058C142.938 23.6371 142.36 25.52 142.45 27.4315L142.443 27.789Z" fill="white"/>
<path id="Vector_9" d="M159.059 27.2535C159.035 25.6804 159.369 24.1225 160.038 22.699C160.638 21.3992 161.601 20.3024 162.812 19.5423C164.023 18.7822 165.429 18.3917 166.857 18.4185C167.924 18.3819 168.985 18.5832 169.965 19.008C170.944 19.4328 171.817 20.0703 172.52 20.8746C174.03 22.6958 174.804 25.0184 174.688 27.3834V27.789C174.713 29.3699 174.378 30.9358 173.709 32.3676C173.114 33.6602 172.155 34.7506 170.95 35.5049C169.728 36.2504 168.32 36.6329 166.889 36.6079C165.824 36.6434 164.765 36.4414 163.787 36.0167C162.809 35.592 161.937 34.9551 161.235 34.1519C159.721 32.3326 158.944 30.0094 159.059 27.6431V27.2535ZM161.001 27.789C160.924 29.6472 161.499 31.4739 162.627 32.9511C163.143 33.5822 163.792 34.0906 164.528 34.4397C165.264 34.7888 166.068 34.9699 166.882 34.9699C167.696 34.9699 168.5 34.7888 169.236 34.4397C169.972 34.0906 170.621 33.5822 171.137 32.9511C172.281 31.4199 172.856 29.5372 172.763 27.6271V27.2535C172.777 25.9882 172.524 24.7342 172.019 23.5743C171.58 22.5325 170.856 21.6361 169.931 20.9884C169.025 20.3741 167.952 20.054 166.857 20.0714C166.044 20.0538 165.237 20.2288 164.503 20.5823C163.77 20.9358 163.13 21.4578 162.635 22.1058C161.49 23.6371 160.912 25.52 161.001 27.4315V27.789Z" fill="white"/>
<path id="Vector_10" d="M177.909 27.3561C177.787 25.0434 178.426 22.7547 179.728 20.8409C180.291 20.0621 181.036 19.4337 181.897 19.011C182.759 18.5884 183.711 18.3844 184.67 18.417C185.738 18.3682 186.799 18.6017 187.747 19.0938C188.696 19.586 189.499 20.3196 190.075 21.2209V11.3823H192V36.2873H190.187L190.107 33.9531C189.497 34.8258 188.674 35.528 187.717 35.9934C186.76 36.4588 185.7 36.672 184.638 36.6127C183.688 36.6348 182.747 36.424 181.897 35.9988C181.047 35.5735 180.313 34.9467 179.76 34.1727C178.434 32.2406 177.783 29.9235 177.909 27.5822V27.3561ZM179.866 27.696C179.765 29.5553 180.233 31.401 181.208 32.9864C181.621 33.6072 182.186 34.1114 182.849 34.4505C183.512 34.7896 184.251 34.9523 184.995 34.923C186.063 34.9823 187.124 34.7107 188.033 34.1451C188.942 33.5795 189.655 32.7473 190.075 31.7616V23.5294C189.703 22.4975 189.014 21.6104 188.107 20.9959C187.2 20.3814 186.122 20.0711 185.027 20.1099C184.283 20.0815 183.543 20.2431 182.878 20.5796C182.212 20.9161 181.643 21.4164 181.224 22.0337C180.208 23.7391 179.734 25.7141 179.866 27.696Z" fill="white"/>
</g>
</g>
</g>
<defs>
<clipPath id="clip0_730_1935">
<rect width="192" height="48" fill="white"/>
</clipPath>
</defs>
</svg>
