<svg width="16" height="16" viewBox="0 0 16 16" fill="none" xmlns="http://www.w3.org/2000/svg">
<path id="Vector" d="M16 8C16 8.50962 15.5865 8.92308 15.0769 8.92308H8.92308V15.0769C8.92308 15.5865 8.50962 16 8 16C7.49038 16 7.07692 15.5865 7.07692 15.0769V8.92308H0.923077C0.413462 8.92308 0 8.50962 0 8C0 7.49038 0.413462 7.07692 0.923077 7.07692H7.07692V0.923077C7.07692 0.413462 7.49038 0 8 0C8.50962 0 8.92308 0.413462 8.92308 0.923077V7.07692H15.0769C15.5865 7.07692 16 7.49038 16 8Z" fill="#2E2E2E"/>
</svg>
